{
  "accessors": [
    {
      "bufferView": 2,
      "componentType": 5126,
      "count": 4,
      "max": [
        1.5875600576400757,
        1.5875600576400757,
        0.0
      ],
      "min": [
        -1.5875600576400757,
        -1.5875600576400757,
        0.0
      ],
      "type": "VEC3"
    },
    {
      "bufferView": 2,
      "byteOffset": 48,
      "componentType": 5126,
      "count": 4,
      "max": [
        0.0,
        0.0,
        1.0
      ],
      "min": [
        0.0,
        0.0,
        1.0
      ],
      "type": "VEC3"
    },
    {
      "bufferView": 1,
      "componentType": 5126,
      "count": 4,
      "max": [
        1.0,
        1.0
      ],
      "min": [
        0.0,
        0.0
      ],
      "type": "VEC2"
    },
    {
      "bufferView": 0,
      "componentType": 5125,
      "count": 6,
      "type": "SCALAR"
    },
    {
      "bufferView": 2,
      "byteOffset": 96,
      "componentType": 5126,
      "count": 24455,
      "max": [
        0.6004999876022339,
        0.6821500062942505,
        1.882290005683899
      ],
      "min": [
        -0.7178000211715698,
        -0.8313900232315063,
        -0.014299999922513962
      ],
      "type": "VEC3"
    },
    {
      "bufferView": 2,
      "byteOffset": 293556,
      "componentType": 5126,
      "count": 24455,
      "max": [
        1.0,
        1.0,
        1.0
      ],
      "min": [
        -1.0,
        -1.0,
        -1.0
      ],
      "type": "VEC3"
    },
    {
      "bufferView": 3,
      "componentType": 5126,
      "count": 24455,
      "max": [
        1.0,
        1.0,
        1.0,
        1.0
      ],
      "min": [
        -1.0,
        -1.0,
        -1.0,
        -1.0
      ],
      "type": "VEC4"
    },
    {
      "bufferView": 1,
      "byteOffset": 32,
      "componentType": 5126,
      "count": 24455,
      "max": [
        0.9973599910736084,
        0.9940599799156189
      ],
      "min": [
        0.005520000122487545,
        0.0035099999513477087
      ],
      "type": "VEC2"
    },
    {
      "bufferView": 1,
      "byteOffset": 195672,
      "componentType": 5126,
      "count": 24455,
      "max": [
        0.9982900023460388,
        0.9982900023460388
      ],
      "min": [
        -0.0007900000200606883,
        0.0
      ],
      "type": "VEC2"
    },
    {
      "bufferView": 0,
      "byteOffset": 24,
      "componentType": 5125,
      "count": 52560,
      "type": "SCALAR"
    }
  ],
  "asset": {
    "extras": {
      "author": "tashtego (https://sketchfab.com/tashtego)",
      "license": "CC-BY-NC-4.0 (http://creativecommons.org/licenses/by-nc/4.0/)",
      "source": "https://sketchfab.com/3d-models/lunokhod-2-d7419015501640998bc5d00ca4c0f9f4",
      "title": "Lunokhod-2"
    },
    "generator": "Sketchfab-12.89.0",
    "version": "2.0"
  },
  "bufferViews": [
    {
      "buffer": 0,
      "byteLength": 210264,
      "name": "floatBufferViews",
      "target": 34963
    },
    {
      "buffer": 0,
      "byteLength": 391312,
      "byteOffset": 210264,
      "byteStride": 8,
      "name": "floatBufferViews",
      "target": 34962
    },
    {
      "buffer": 0,
      "byteLength": 587016,
      "byteOffset": 601576,
      "byteStride": 12,
      "name": "floatBufferViews",
      "target": 34962
    },
    {
      "buffer": 0,
      "byteLength": 391280,
      "byteOffset": 1188592,
      "byteStride": 16,
      "name": "floatBufferViews",
      "target": 34962
    }
  ],
  "buffers": [
    {
      "byteLength": 1579872,
      "uri": "scene.bin"
    }
  ],
  "images": [
    {
      "uri": "textures/Lunokhod_color_baseColor.png"
    },
    {
      "uri": "textures/Lunokhod_color_metallicRoughness.png"
    },
    {
      "uri": "textures/Lunokhod_color_normal.png"
    },
    {
      "uri": "textures/Floor_baseColor.png"
    }
  ],
  "materials": [
    {
      "doubleSided": true,
      "name": "Lunokhod_color",
      "normalTexture": {
        "index": 2
      },
      "occlusionTexture": {
        "index": 1
      },
      "pbrMetallicRoughness": {
        "baseColorTexture": {
          "index": 0
        },
        "metallicRoughnessTexture": {
          "index": 1
        },
        "roughnessFactor": 0.20000000298023202
      }
    },
    {
      "alphaMode": "BLEND",
      "doubleSided": true,
      "name": "Floor",
      "pbrMetallicRoughness": {
        "baseColorTexture": {
          "index": 3
        },
        "metallicFactor": 0.0
      }
    }
  ],
  "meshes": [
    {
      "name": "Floor",
      "primitives": [
        {
          "attributes": {
            "NORMAL": 1,
            "POSITION": 0,
            "TEXCOORD_0": 2
          },
          "indices": 3,
          "material": 1,
          "mode": 4
        }
      ]
    },
    {
      "name": "Lunohod_2.002",
      "primitives": [
        {
          "attributes": {
            "NORMAL": 5,
            "POSITION": 4,
            "TANGENT": 6,
            "TEXCOORD_0": 7,
            "TEXCOORD_1": 8
          },
          "indices": 9,
          "material": 0,
          "mode": 4
        }
      ]
    }
  ],
  "nodes": [
    {
      "children": [
        1
      ],
      "matrix": [
        1.0,
        0.0,
        0.0,
        0.0,
        0.0,
        2.220446049250313e-16,
        -1.0,
        0.0,
        0.0,
        1.0,
        2.220446049250313e-16,
        0.0,
        0.0,
        0.0,
        0.0,
        1.0
      ],
      "name": "Sketchfab_model"
    },
    {
      "children": [
        2,
        4
      ],
      "name": "Root"
    },
    {
      "children": [
        3
      ],
      "matrix": [
        0.77098,
        0.0,
        0.0,
        0.0,
        0.0,
        0.77098,
        0.0,
        0.0,
        0.0,
        0.0,
        0.77098,
        0.0,
        0.0,
        0.0,
        0.0,
        1.0
      ],
      "name": "Floor"
    },
    {
      "mesh": 0,
      "name": "Floor"
    },
    {
      "children": [
        5
      ],
      "name": "Lunohod_2.002"
    },
    {
      "mesh": 1,
      "name": "Lunohod_2.002"
    }
  ],
  "samplers": [
    {
      "magFilter": 9729,
      "minFilter": 9987,
      "wrapS": 10497,
      "wrapT": 10497
    }
  ],
  "scene": 0,
  "scenes": [
    {
      "name": "Sketchfab_Scene",
      "nodes": [
        0
      ]
    }
  ],
  "textures": [
    {
      "sampler": 0,
      "source": 0
    },
    {
      "sampler": 0,
      "source": 1
    },
    {
      "sampler": 0,
      "source": 2
    },
    {
      "sampler": 0,
      "source": 3
    }
  ]
}
